<?xml version="1.0" standalone="no"?>
<!DOCTYPE svg PUBLIC "-//W3C//DTD SVG 20010904//EN"
 "http://www.w3.org/TR/2001/REC-SVG-20010904/DTD/svg10.dtd">
<svg version="1.0" xmlns="http://www.w3.org/2000/svg"
 width="1599.000000pt" height="1599.000000pt" viewBox="0 0 1599.000000 1599.000000"
 preserveAspectRatio="xMidYMid meet">

<g transform="translate(0.000000,1599.000000) scale(0.100000,-0.100000)"
fill="#000000" stroke="none">
<path d="M4930 12433 c-5 -161 -2 -391 4 -401 10 -17 897 -17 914 0 8 8 12 52
12 130 0 70 4 118 10 118 15 0 643 -354 710 -400 14 -10 44 -27 68 -39 23 -12
42 -28 42 -35 0 -14 -89 -69 -415 -256 -298 -171 -388 -220 -402 -220 -10 0
-13 26 -13 113 0 61 -4 118 -8 125 -7 9 -50 12 -183 10 l-174 -3 0 -315 0
-315 625 0 625 0 2 314 c1 173 6 318 11 323 5 5 30 -5 58 -25 49 -33 80 -55
492 -352 123 -88 283 -203 356 -255 74 -52 202 -144 286 -205 84 -60 250 -180
370 -265 235 -168 390 -286 390 -298 0 -8 -212 -165 -490 -363 -102 -73 -302
-216 -445 -319 -143 -102 -428 -307 -633 -454 -244 -175 -377 -265 -384 -258
-5 5 -10 134 -11 323 l-2 314 -904 3 c-609 1 -907 -1 -911 -8 -4 -6 -5 -38 -4
-73 2 -34 3 -140 4 -234 l0 -173 528 0 c397 0 531 3 540 12 7 7 12 39 12 75 0
48 3 63 14 63 8 0 90 -42 183 -94 271 -151 318 -181 318 -201 0 -13 -47 -45
-165 -112 -91 -52 -200 -114 -242 -139 -43 -24 -84 -44 -92 -44 -12 0 -16 17
-18 73 l-3 72 -155 0 -155 0 0 -205 0 -205 2270 -5 2270 -5 7 -87 c13 -180
113 -392 244 -524 289 -288 740 -335 1086 -112 90 58 225 199 271 283 49 88
95 227 108 325 6 41 13 85 15 98 l4 22 548 0 c301 0 553 4 561 9 11 7 13 45 8
212 -11 440 -76 681 -218 821 -33 32 -78 66 -101 77 -95 42 -74 34 -908 351
-85 33 -227 86 -315 120 -88 33 -169 65 -180 70 -11 5 -47 20 -80 33 l-60 23
-53 145 c-170 466 -382 731 -733 918 -245 131 -549 199 -967 216 -120 5 -153
3 -156 -7 -3 -7 -7 -260 -10 -563 -3 -302 -9 -749 -13 -993 l-6 -443 -96 3
-96 3 -5 1610 -5 1610 -2077 3 c-1974 2 -2078 1 -2078 -15z m4990 -1503 c284
-60 503 -175 700 -370 157 -155 242 -283 324 -493 51 -129 86 -303 86 -428 l0
-59 -684 0 c-551 0 -685 3 -689 13 -7 19 -8 1322 -1 1341 9 23 144 21 264 -4z
m1283 -2275 c205 -53 337 -219 337 -425 0 -254 -189 -449 -435 -450 -179 0
-332 97 -409 260 -27 57 -31 78 -34 169 -3 87 0 113 18 165 79 216 305 338
523 281z"/>
<path d="M4647 11643 c-4 -3 -7 -46 -7 -95 l0 -88 -348 0 c-257 0 -351 -3
-360 -12 -13 -13 -18 -391 -6 -422 5 -14 46 -16 359 -16 l353 0 7 -59 c4 -33
4 -69 0 -80 -3 -11 -2 -27 2 -36 7 -12 27 -2 108 57 55 39 144 102 198 140
127 90 254 185 261 197 7 10 -72 73 -226 181 -50 36 -145 104 -210 153 -127
94 -121 90 -131 80z"/>
<path d="M5377 10578 c-2 -7 -2 -38 1 -70 2 -31 2 -68 -2 -82 l-6 -26 -353 -2
-352 -3 -3 -214 c-2 -165 1 -216 10 -223 7 -4 167 -8 355 -8 l343 0 5 -22 c3
-13 6 -56 7 -97 l3 -73 120 87 c120 88 323 233 403 287 23 16 42 35 42 42 0 7
-122 100 -272 207 -319 228 -295 212 -301 197z"/>
<path d="M3620 9716 c0 -47 -5 -88 -10 -91 -6 -4 -162 -6 -348 -6 -185 1 -343
-3 -350 -7 -9 -7 -12 -58 -10 -223 l3 -214 355 -5 355 -5 3 -87 c2 -79 5 -88
22 -88 10 0 21 4 25 9 3 6 47 39 98 75 342 244 422 304 422 316 0 8 -34 38
-75 68 -123 86 -370 264 -424 305 -28 20 -54 37 -58 37 -5 0 -8 -38 -8 -84z"/>
<path d="M4635 8818 l0 -73 -295 -5 -295 -5 -3 -169 c-2 -111 1 -173 8 -180 7
-7 113 -13 298 -16 l287 -5 3 -73 c3 -87 -7 -89 157 33 61 45 156 114 213 154
116 82 116 77 23 139 -51 34 -105 73 -305 220 -39 28 -75 52 -81 52 -6 0 -10
-31 -10 -72z"/>
<path d="M2754 7206 c-32 -32 -34 -37 -34 -106 0 -68 2 -74 31 -101 23 -22 41
-29 73 -30 32 -1 10183 0 10343 1 33 0 48 6 72 31 29 29 31 35 31 104 0 71 -1
74 -35 104 l-36 31 -5205 0 -5206 0 -34 -34z"/>
<path d="M4260 6430 c-19 -19 -20 -33 -20 -385 l0 -365 60 0 60 0 0 259 c0
184 3 262 11 267 12 7 71 -51 375 -368 175 -183 192 -194 233 -141 21 25 21
34 19 382 l-3 356 -60 0 -60 0 -5 -259 c-3 -161 -9 -261 -15 -263 -6 -2 -91
81 -190 184 -326 340 -339 353 -363 353 -12 0 -31 -9 -42 -20z"/>
<path d="M3277 6434 c-4 -4 -7 -176 -7 -381 l0 -374 63 3 62 3 0 375 0 375
-55 3 c-31 2 -59 0 -63 -4z"/>
<path d="M5948 6426 c-94 -34 -140 -96 -146 -197 -4 -72 9 -111 57 -162 53
-58 68 -61 303 -67 205 -5 219 -6 239 -26 13 -13 23 -39 26 -66 4 -37 1 -49
-19 -73 l-25 -29 -289 -5 -289 -6 0 -55 0 -55 275 -3 c292 -3 326 1 392 44 45
29 69 72 79 141 14 104 -28 186 -117 228 -50 24 -62 25 -236 26 -199 0 -244 9
-266 49 -17 33 -8 87 19 116 22 24 23 24 265 24 279 0 277 -1 272 79 l-3 46
-250 2 c-189 2 -259 -1 -287 -11z"/>
<path d="M7272 6378 l3 -63 145 -3 c100 -2 147 -6 152 -15 4 -7 8 -148 8 -314
l0 -303 60 0 60 0 2 313 3 312 130 2 c183 4 177 1 173 71 l-3 57 -368 3 -368
2 3 -62z"/>
<path d="M9095 6426 c-74 -18 -125 -48 -177 -103 -92 -99 -108 -163 -108 -440
l0 -203 65 0 64 0 3 93 3 92 239 3 c173 2 242 -1 253 -10 10 -8 14 -32 13 -82
-1 -39 -1 -77 -1 -83 1 -9 20 -13 61 -13 l60 0 0 358 c0 196 -4 362 -8 368
-19 29 -55 34 -234 33 -109 0 -203 -6 -233 -13z m350 -137 c4 -11 4 -81 0
-154 l-7 -133 -112 -7 c-61 -4 -172 -3 -246 2 l-135 8 -3 50 c-7 102 39 189
121 230 48 24 60 25 213 25 156 0 163 -1 169 -21z"/>
<path d="M10367 6433 c-11 -10 -8 -224 3 -286 13 -65 25 -93 60 -128 42 -44
94 -68 163 -78 36 -5 71 -12 77 -16 6 -4 10 -54 10 -126 l0 -119 60 0 60 0 0
120 c0 137 -2 134 91 143 66 6 105 24 159 73 57 52 71 110 68 282 l-3 137 -55
0 -55 0 -5 -147 c-4 -129 -8 -150 -26 -175 -36 -48 -56 -53 -240 -53 -158 0
-173 2 -198 21 -43 33 -50 57 -47 158 1 51 -1 118 -5 147 l-6 54 -52 0 c-29 0
-56 -3 -59 -7z"/>
<path d="M12201 6424 c-55 -15 -100 -39 -114 -61 -4 -7 -13 -13 -20 -13 -14 0
-67 -63 -67 -79 0 -6 -4 -11 -9 -11 -5 0 -11 -8 -15 -17 -35 -101 -36 -111
-36 -336 l0 -228 58 3 57 3 3 80 c2 44 8 86 14 92 8 10 69 13 248 13 208 0
239 -2 244 -16 3 -9 6 -51 6 -95 l0 -79 60 0 60 0 0 360 c0 347 -1 361 -20
380 -19 19 -33 20 -217 19 -139 -1 -214 -5 -252 -15z m357 -116 c19 -19 16
-282 -3 -302 -13 -12 -51 -14 -244 -13 -162 1 -232 6 -243 14 -11 10 -13 26
-7 83 14 126 70 190 194 220 52 13 290 11 303 -2z"/>
<path d="M6427 4995 c-20 -14 -41 -25 -46 -25 -6 0 -11 -4 -11 -9 0 -5 -10
-11 -22 -13 -17 -2 -23 -10 -23 -28 0 -16 5 -24 15 -23 29 3 59 12 79 22 11 6
27 11 36 11 29 0 46 26 36 53 -14 37 -24 39 -64 12z"/>
<path d="M5015 4990 c-10 -11 -26 -20 -37 -20 -10 0 -18 -4 -18 -9 0 -5 -11
-12 -25 -15 -18 -5 -25 -13 -25 -31 0 -14 6 -25 13 -25 16 0 85 24 93 33 4 4
20 7 35 7 30 0 41 22 28 58 -10 27 -40 28 -64 2z"/>
<path d="M7064 4966 c-9 -38 0 -53 38 -59 42 -6 48 -2 48 33 0 33 -3 35 -47
45 -29 6 -33 4 -39 -19z"/>
<path d="M7551 4976 c-5 -6 -10 -108 -10 -226 -1 -156 -5 -216 -14 -222 -7 -4
-58 -8 -115 -8 -101 0 -103 0 -112 26 -6 14 -10 56 -10 94 0 95 8 102 119 98
l86 -3 0 35 0 35 -99 3 c-59 2 -103 -1 -110 -8 -5 -5 -18 -10 -28 -10 -34 0
-52 -57 -52 -165 0 -114 11 -142 71 -170 29 -14 57 -16 152 -13 197 6 203 16
203 314 0 105 -3 200 -6 212 -5 15 -15 20 -36 20 -17 -1 -34 -6 -39 -12z"/>
<path d="M8531 4976 c-7 -8 -11 -27 -9 -43 3 -25 7 -28 38 -28 32 0 35 3 38
33 3 27 -1 34 -23 42 -33 12 -30 13 -44 -4z"/>
<path d="M10643 4980 c-17 -7 -23 -18 -23 -39 0 -36 6 -40 47 -34 26 4 32 10
36 36 2 18 4 33 3 33 -8 9 -46 11 -63 4z"/>
<path d="M10765 4979 c-4 -6 -7 -108 -8 -227 0 -306 0 -307 221 -307 99 0 136
3 140 13 2 6 10 12 17 12 29 0 45 60 45 166 l0 103 -35 36 -36 35 -114 0 -114
0 2 -37 2 -38 93 0 c114 0 122 -7 122 -105 0 -101 -10 -110 -123 -110 -151 0
-137 -24 -137 231 0 206 -1 219 -19 229 -25 13 -48 13 -56 -1z"/>
<path d="M11242 4978 c-16 -16 -17 -405 0 -459 13 -46 42 -67 102 -75 43 -6
44 -6 51 26 7 34 -4 50 -36 50 -35 0 -39 24 -41 231 -1 125 -6 211 -12 222
-12 20 -46 23 -64 5z"/>
<path d="M4255 4810 l-110 -5 0 -180 0 -180 35 0 35 0 3 140 c2 96 6 142 15
147 7 4 38 8 70 8 91 0 97 -11 97 -170 l0 -130 35 0 35 0 0 134 c0 159 6 172
74 161 23 -3 45 -10 49 -14 5 -5 9 -69 10 -142 l2 -133 32 -7 c37 -7 58 3 50
24 -11 29 17 37 40 13 29 -30 61 -36 192 -36 175 0 201 27 195 200 -6 164 -23
176 -252 171 -58 -1 -63 -3 -73 -28 -5 -15 -6 -30 -1 -35 5 -5 58 -11 118 -14
79 -3 112 -9 120 -19 6 -8 12 -47 13 -87 3 -104 -4 -111 -119 -116 -108 -5
-140 6 -140 49 0 15 6 31 13 36 6 4 53 8 102 8 l90 0 0 40 0 40 -75 3 c-89 4
-150 -11 -181 -44 -31 -33 -39 -30 -39 14 0 58 -18 109 -47 132 -24 19 -39 21
-144 19 -64 -1 -120 0 -125 2 -5 2 -58 2 -119 -1z"/>
<path d="M5348 4810 c-114 -4 -130 -7 -150 -27 -32 -33 -32 -112 1 -147 23
-25 29 -26 131 -26 112 0 130 -6 130 -46 0 -37 -21 -43 -156 -46 l-129 -3 0
-35 0 -35 151 0 c127 0 153 3 167 17 9 9 22 18 29 20 7 3 14 31 16 71 4 65 4
67 -31 102 l-35 35 -106 0 c-99 0 -106 1 -106 20 0 22 -5 21 135 25 50 1 93 3
98 4 12 2 8 69 -5 72 -7 2 -70 2 -140 -1z"/>
<path d="M5988 4813 c-67 -2 -118 -8 -118 -13 0 -6 -7 -10 -15 -10 -8 0 -22
-12 -32 -26 -13 -21 -17 -55 -20 -163 -2 -75 0 -141 4 -147 4 -7 22 -14 38
-15 l30 -4 6 130 c3 72 10 138 14 148 8 19 12 20 145 21 l95 1 3 34 c3 30 -12
55 -28 49 -3 -1 -58 -4 -122 -5z"/>
<path d="M6257 4813 l-68 -4 3 -37 3 -37 107 -1 c59 -1 114 -4 122 -7 13 -5
16 -24 16 -102 0 -93 -1 -96 -26 -105 -34 -13 -153 -13 -192 1 -34 12 -46 40
-27 66 11 15 29 18 107 19 l93 0 0 40 0 39 -107 0 -107 -1 -36 -34 c-30 -29
-35 -40 -35 -81 0 -104 41 -129 211 -129 132 0 170 13 186 64 15 48 16 201 2
240 -21 59 -89 77 -252 69z"/>
<path d="M7073 4813 c-10 -3 -13 -51 -13 -189 l0 -184 45 0 45 0 0 185 c0 176
-1 185 -19 185 -11 0 -25 2 -33 4 -7 3 -19 2 -25 -1z"/>
<path d="M8531 4812 c-8 -3 -11 -60 -11 -188 l0 -184 40 0 39 0 3 181 c2 100
0 185 -3 190 -5 9 -43 9 -68 1z"/>
<path d="M8681 4803 c-21 -17 -22 -23 -19 -188 l3 -170 46 -3 47 -3 0 142 c1
78 5 146 11 152 13 13 126 4 145 -12 13 -11 16 -37 16 -147 l0 -134 35 0 35 0
1 93 c1 138 4 185 12 193 3 4 28 9 55 12 46 4 49 3 61 -25 8 -20 11 -72 9
-152 -3 -132 -8 -121 55 -124 22 -1 22 1 25 128 3 144 -10 201 -52 229 -24 15
-37 16 -293 16 -79 0 -149 3 -156 6 -8 3 -24 -3 -36 -13z"/>
<path d="M10357 4811 c-120 -6 -130 -8 -148 -30 -10 -13 -19 -36 -19 -51 0
-16 -2 -35 -5 -42 -5 -12 11 -34 48 -64 7 -6 60 -13 116 -16 110 -4 135 -16
124 -59 -7 -25 -25 -29 -168 -32 l-120 -2 0 -37 -1 -38 144 0 c155 0 185 8
216 54 33 51 13 144 -38 175 -28 18 -50 21 -135 21 -94 0 -101 1 -101 20 0 12
7 20 18 21 9 0 64 2 122 2 l105 2 3 34 c3 30 -11 55 -28 49 -3 -1 -63 -4 -133
-7z"/>
<path d="M10620 4630 l0 -190 43 0 42 0 0 183 c0 110 -4 185 -10 189 -5 4 -25
8 -42 8 l-33 0 0 -190z"/>
<path d="M6643 4791 c-13 -11 -23 -24 -23 -30 0 -6 -4 -11 -9 -11 -12 0 -24
-355 -13 -400 6 -29 12 -34 37 -35 28 0 30 3 37 50 5 28 7 116 6 197 -2 109 1
151 10 160 13 13 139 20 198 11 40 -6 54 -35 54 -111 0 -91 -13 -102 -120
-102 -94 0 -99 -3 -92 -52 l4 -28 95 0 c74 0 102 4 133 20 44 22 51 43 53 148
1 127 -1 138 -34 171 l-31 31 -141 0 c-124 -1 -145 -3 -164 -19z"/>
<path d="M7717 4787 c-34 -27 -47 -72 -47 -161 0 -79 17 -146 39 -154 9 -3 19
-10 23 -16 12 -17 279 -14 312 3 35 19 48 70 45 179 -3 156 -22 172 -209 172
-125 0 -137 -2 -163 -23z m285 -62 c12 -15 9 -164 -2 -186 -10 -17 -22 -19
-113 -19 -56 0 -107 4 -113 8 -13 7 -18 64 -16 149 l2 52 38 4 c64 8 197 2
204 -8z"/>
<path d="M9318 4787 c-14 -12 -31 -32 -37 -44 -11 -22 -21 -307 -14 -380 4
-36 8 -42 32 -45 51 -8 51 -9 51 197 0 167 2 194 17 206 17 15 193 20 226 7
14 -6 17 -20 17 -82 0 -41 -4 -86 -10 -100 -9 -24 -13 -25 -102 -28 l-93 -3
-3 -38 -3 -39 112 4 c78 2 114 7 117 16 2 6 10 12 18 12 22 0 35 45 41 140 5
73 3 92 -16 132 -12 26 -30 52 -40 58 -11 5 -80 10 -153 10 -123 0 -135 -2
-160 -23z"/>
<path d="M9754 4774 c-34 -35 -34 -37 -34 -127 0 -184 17 -201 212 -205 l136
-3 34 29 33 30 3 109 c4 115 -13 183 -43 183 -8 0 -15 5 -15 10 0 6 -55 10
-146 10 l-147 0 -33 -36z m296 -54 c5 -8 10 -52 10 -97 0 -101 -2 -103 -134
-103 -121 0 -126 4 -126 110 0 106 9 112 143 108 73 -2 100 -7 107 -18z"/>
<path d="M11500 4799 c0 -5 -6 -9 -13 -9 -29 0 -50 -44 -58 -121 -16 -142 -2
-194 56 -205 19 -3 35 -10 35 -16 0 -5 38 -8 88 -6 85 3 87 3 90 29 3 26 2 26
-78 33 -45 4 -86 3 -93 0 -7 -4 -9 -3 -4 1 4 5 -2 19 -14 31 -19 20 -21 32
-18 107 2 47 7 88 10 91 10 11 238 13 249 2 13 -13 13 -76 -1 -76 -5 0 -8 -3
-6 -7 3 -5 -38 -8 -90 -8 l-95 0 -4 -39 -3 -39 100 5 c56 3 104 9 107 14 4 5
20 20 36 32 24 18 31 32 34 68 2 28 0 44 -6 40 -5 -3 -12 3 -15 14 -3 11 -6
24 -8 28 -1 4 -15 15 -31 25 -25 15 -50 18 -149 16 -65 0 -119 -5 -119 -10z"/>
<path d="M8164 4540 c-26 -10 -30 -20 -39 -103 -7 -62 -6 -67 12 -67 11 0 24
10 30 23 13 26 43 121 43 135 0 15 -23 20 -46 12z"/>
</g>
</svg>
